# xmcd
#
# Track frame offsets:
#	150
#	13508
#	27738
#	42073
#	56380
#	72553
#	89216
#	106350
#	122790
#	138618
#	152159
#	165871
#	177785
#	191391
#	204990
#	219112
#	233443
#	246733
#	258899
#	272250
#	285604
#	300486
#	315255
#	328420
#
# Disc length: 4565 seconds
#
# Revision: 0
# Processed by: cddbd v1.5.2PL0 Copyright (c) Steve Scherf et al.
# Submitted via: EZCDAudioConverter 2.1.5.1
#
DISCID=4d11d318
DTITLE=John Lee Hooker - Boogie chillen
DYEAR=2011
DGENRE=
TTITLE0=She was in Chicago
TTITLE1=Boogie chillen
TTITLE2=Stomp boogie
TTITLE3=Who's been jiving you
TTITLE4=Black man blues
TTITLE5=Helpless blues
TTITLE6=Goin' mad blues
TTITLE7=Low down-midnite boogie
TTITLE8=Landing blues
TTITLE9=Drifting from door to door
TTITLE10=Hobo blues
TTITLE11=Howlin' wolf
TTITLE12=Crawlin' king snake
TTITLE13=Miss Rosie Mae
TTITLE14=Highway blues
TTITLE15=Whistlin' and moanin' blues
TTITLE16=Hoogie boogie
TTITLE17=Miss Eloise
TTITLE18=Nightmare blues
TTITLE19=Late last night
TTITLE20=Wandering blues
TTITLE21=Don't go baby
TTITLE22=Devil's jump
TTITLE23=I'm gonna kill that woman
EXTD=
EXTT0=
EXTT1=
EXTT2=
EXTT3=
EXTT4=
EXTT5=
EXTT6=
EXTT7=
EXTT8=
EXTT9=
EXTT10=
EXTT11=
EXTT12=
EXTT13=
EXTT14=
EXTT15=
EXTT16=
EXTT17=
EXTT18=
EXTT19=
EXTT20=
EXTT21=
EXTT22=
EXTT23=
PLAYORDER=
